<?xml version="1.0" encoding="utf-8"?>
<!-- Generator: Adobe Illustrator 25.0.0, SVG Export Plug-In . SVG Version: 6.00 Build 0)  -->
<svg version="1.1" id="Layer_1" xmlns="http://www.w3.org/2000/svg" xmlns:xlink="http://www.w3.org/1999/xlink" x="0px" y="0px"
	 viewBox="0 0 358 358.4" style="enable-background:new 0 0 358 358.4;" xml:space="preserve">
<style type="text/css">
	.st0{fill:#26BEBE;}
	.st1{fill:#324A5E;}
	.st2{fill:#2B3B4E;}
	.st3{fill:#B5F1F4;}
	.st4{fill:#84DBFF;}
	.st5{fill:#FFFFFF;}
	.st6{fill:#E9EFF4;}
	.st7{fill:#B8C9D9;}
	.st8{fill:#FED8B2;}
	.st9{fill:#EFC095;}
	.st10{fill:#F4E3C3;}
	.st11{fill:#444444;}
	.st12{fill:#272525;}
	.st13{fill:#F9B54C;}
	.st14{fill:#F4A200;}
	.st15{fill:#1F2D3A;}
	.st16{fill:#CC8200;}
	.st17{fill:#CFDBE6;}
</style>
<circle class="st0" cx="179.2" cy="179.2" r="179.2"/>
<path class="st1" d="M321.4,207.6v-56.9h-32c-2.7-10.4-6.8-20.3-12.2-29.3l22.7-22.7l-40.2-40.2L237,81.2
	c-9.1-5.3-18.9-9.5-29.3-12.2V37h-56.9v32c-10.4,2.7-20.3,6.8-29.3,12.2L98.7,58.5L58.5,98.7l22.7,22.7c-5.3,9.1-9.5,18.9-12.2,29.3
	H37v56.9h32c2.7,10.4,6.8,20.3,12.2,29.3l-22.7,22.7l40.2,40.2l22.7-22.7c9.1,5.3,18.9,9.5,29.3,12.2v32h56.9v-32
	c10.4-2.7,20.3-6.8,29.3-12.2l22.7,22.7l40.2-40.2L277.2,237c5.3-9.1,9.5-18.9,12.2-29.3L321.4,207.6L321.4,207.6L321.4,207.6z
	 M179.2,236.1c-31.4,0-56.9-25.5-56.9-56.9s25.5-56.9,56.9-56.9s56.9,25.5,56.9,56.9S210.6,236.1,179.2,236.1z"/>
<path class="st2" d="M321.4,207.6v-56.9h-32c-2.7-10.4-6.8-20.3-12.2-29.3l22.7-22.7l-40.2-40.2L237,81.2
	c-9.1-5.3-18.9-9.5-29.3-12.2V37h-28.4v85.3c31.4,0,56.9,25.5,56.9,56.9s-25.5,56.9-56.9,56.9v85.3h28.4v-32
	c10.4-2.7,20.3-6.8,29.3-12.2l22.7,22.7l40.2-40.2L277.2,237c5.3-9.1,9.5-18.9,12.2-29.3L321.4,207.6L321.4,207.6L321.4,207.6z"/>
<path class="st3" d="M179.2,270.6c-50.4,0-91.4-41-91.4-91.4s41-91.4,91.4-91.4s91.4,41,91.4,91.4S229.6,270.6,179.2,270.6z
	 M179.2,99.9c-43.7,0-79.3,35.6-79.3,79.3s35.6,79.3,79.3,79.3s79.3-35.6,79.3-79.3S222.9,99.9,179.2,99.9z"/>
<path class="st4" d="M270.6,179.2c0-50.4-41-91.4-91.4-91.4v12.1c43.7,0,79.3,35.6,79.3,79.3s-35.6,79.3-79.3,79.3v12.1
	C229.6,270.6,270.6,229.6,270.6,179.2z"/>
<circle class="st5" cx="179.2" cy="179.2" r="80.4"/>
<path class="st6" d="M259.6,179.2c0-44.4-36-80.4-80.4-80.4v160.8C223.6,259.6,259.6,223.6,259.6,179.2z"/>
<path class="st5" d="M223.8,219.7h-89.2v-15.1c0-10.7,6.9-20.3,17.1-23.7l16.4-5.5h22.3l16.4,5.5c10.2,3.4,17.1,12.9,17.1,23.7
	L223.8,219.7L223.8,219.7z"/>
<path class="st7" d="M223.8,204.6c0-10.7-6.9-20.3-17.1-23.7l-16.4-5.5h-11.7v44.3h45.2L223.8,204.6L223.8,204.6z"/>
<polygon class="st8" points="190.3,175.4 179.2,186.6 168.1,175.4 168.1,164.3 190.3,164.3 "/>
<polygon class="st9" points="178.6,164.3 178.6,186 179.2,186.6 190.3,175.4 190.3,164.3 "/>
<path class="st10" d="M156.9,142c0-12.3,10-22.3,22.3-22.3c12.3,0,22.3,10,22.3,22.3s-10,33.4-22.3,33.4S156.9,154.3,156.9,142z"/>
<path class="st8" d="M179.2,119.7c-0.2,0-0.4,0-0.6,0v55.7c0.2,0,0.4,0,0.6,0c12.3,0,22.3-21.1,22.3-33.4
	C201.5,129.7,191.5,119.7,179.2,119.7z"/>
<path class="st11" d="M201.5,142c0-12.3-10-22.3-22.3-22.3s-22.3,10-22.3,22.3c0,4.9,1.6,11.2,4.3,17.1c-0.6-3.4-0.5-6.8-0.1-9.4
	c14.2-1.1,27.8-7.7,27.8-7.7s1.7,3.2,8.2,6c0.5,2.6,0.9,6.9,0.1,11.1C199.9,153.2,201.5,146.9,201.5,142z"/>
<path class="st12" d="M201.5,142c0-12.3-10-22.3-22.3-22.3c-0.2,0-0.4,0-0.6,0V146c6.1-2,10.2-4,10.2-4s1.7,3.2,8.2,6
	c0.5,2.6,0.9,6.9,0.1,11.1C199.9,153.2,201.5,146.9,201.5,142z"/>
<polygon class="st13" points="174.5,219.3 177.6,190.3 180.8,190.3 183.9,219.3 "/>
<polygon class="st14" points="180.8,190.3 178.6,190.3 178.6,219.3 183.9,219.3 "/>
<path class="st1" d="M162.9,177.1l-11.3,3.8c-10.2,3.4-17.1,12.9-17.1,23.7v15.1h44v-1.9L162.9,177.1z"/>
<path class="st2" d="M223.8,204.6c0-10.7-6.9-20.3-17.1-23.7l-11.3-3.8l-16.3,42.2l-0.6-1.5v1.9h45.2L223.8,204.6L223.8,204.6z"/>
<polygon class="st15" points="195.5,177.1 198.5,190.3 192.7,193.2 198.5,200 179.2,219.3 "/>
<polygon class="st2" points="162.9,177.1 159.9,190.3 165.7,193.2 159.9,200 179.2,219.3 "/>
<polygon class="st14" points="185.4,186.6 181.3,196.3 177.1,196.3 173,186.6 "/>
<polygon class="st16" points="185.4,186.6 178.6,186.6 178.6,196.3 181.3,196.3 "/>
<polygon class="st17" points="188.9,190.3 195.5,177.1 190.3,175.4 179.2,186.6 "/>
<polygon class="st6" points="169.5,190.3 162.9,177.1 168.1,175.4 179.2,186.6 "/>
</svg>
